<svg width="149" height="144" viewBox="0 0 149 144" fill="none" xmlns="http://www.w3.org/2000/svg">
<g clip-path="url(#clip0_12_33)">
<path d="M56.641 74.9686C56.7784 74.1141 57.0808 73.6394 57.8231 73.7976C58.8952 74.0192 59.3351 73.2912 59.8849 72.4051C60.8745 70.8227 60.902 69.5567 59.9399 67.911C59.3076 66.8033 58.7303 66.202 57.6031 66.4235C56.641 66.6134 56.3661 66.1387 56.421 65.0627C56.5035 62.6257 56.476 60.2205 56.5035 57.7835C56.531 55.853 56.476 53.9224 56.0087 52.0235C55.2114 48.7321 55.1565 45.3774 55.1839 41.991C55.2114 40.3453 54.9915 38.7312 54.6891 37.1172C54.3042 35.0284 53.1771 33.8257 51.3902 33.3827C50.428 33.1295 49.4659 32.8763 48.5312 32.4016C47.4865 31.8635 46.9367 31.104 47.1841 29.6482C48.2288 30.2178 48.9985 31.1673 49.6858 32.18C50.2906 33.0978 50.9779 33.0029 51.7751 32.6548C52.6273 32.275 52.7098 31.5154 52.5173 30.6293C52.3799 29.933 52.2424 29.2684 52.2974 28.5721C52.2974 28.3822 52.2974 28.0657 52.1875 28.0024C50.5655 26.9897 51.3078 25.1857 51.0328 23.7299C52.2974 22.4007 51.4177 20.755 51.5277 19.2675C51.7751 15.6912 54.7716 13.4126 58.043 14.4253C60.4622 15.1532 61.6443 16.9255 61.6168 19.7739C61.6168 20.5018 61.5343 21.2613 61.5618 21.9893C61.5618 22.4956 61.067 23.2868 62.0566 23.3501C62.0841 23.3501 62.0841 23.4134 62.1116 23.4451C62.414 23.9831 61.9467 27.5277 61.4244 27.7809C60.8745 28.0657 60.9295 28.4139 60.902 28.9202C60.8745 29.5216 60.7921 30.1545 60.6546 30.7242C60.4347 31.642 60.6821 32.2433 61.3969 32.6231C62.1666 33.0345 62.8814 33.1928 63.4862 32.2433C64.1459 31.1989 64.9432 30.3128 65.9054 29.6482C66.895 28.9835 67.9397 28.6354 69.0943 29.0468C69.5891 29.2367 69.864 29.1418 70.084 28.5721C71.3485 25.249 73.3828 22.8438 76.4893 21.7994C76.8742 21.6728 77.0666 21.3563 77.2316 20.9765C78.5236 18.0649 80.4205 15.7545 82.7847 13.9189C84.5166 12.5897 86.1661 11.1339 87.8705 9.80464C88.5028 9.29827 88.5028 8.95014 88.0629 8.25387C87.4856 7.33607 86.8258 7.01959 85.8362 7.01959C66.2902 7.05123 46.7443 7.05123 27.1983 7.01959C25.9338 7.01959 25.4389 7.87409 24.8891 8.7919C24.5317 9.39321 25.0816 9.5831 25.3565 9.80464C27.1709 11.3238 29.0402 12.8112 30.8546 14.2987C31.9542 15.2165 33.0264 16.166 33.9061 17.3686C34.2635 17.8433 34.4009 18.2231 34.071 18.8561C32.669 21.5778 33.0814 24.173 34.2635 26.9264C34.9782 28.6038 35.583 30.3761 36.5177 31.9268C36.7651 32.3383 36.9026 32.7813 37.3149 33.0978C35.8854 34.0156 35.8579 34.0156 35.0057 32.5598C34.126 31.104 33.4937 29.4899 32.9989 27.8126C32.7515 26.958 32.4216 26.1352 31.7068 25.6288C28.188 23.1919 25.6589 19.6789 23.5421 15.6912C22.5249 13.7923 21.4803 11.9567 20.4081 10.0895C20.1057 9.55146 19.9408 9.01343 19.7758 8.41211C19.6659 7.93739 19.8308 7.17783 19.226 7.11453C18.3738 7.01959 17.5216 7.05123 16.6694 7.17783C16.367 7.24113 16.5044 7.84245 16.5044 8.19058C16.5044 12.0517 16.4769 15.9128 16.5044 19.8055C16.5044 20.6917 16.367 21.0715 15.5148 20.9765C14.69 20.8816 13.8653 20.8816 13.0406 20.9765C12.1059 21.0715 11.831 20.755 11.8585 19.6473C11.9135 12.0517 11.886 4.42442 11.886 -3.17118C11.886 -5.10173 11.9135 -7.03228 11.8585 -8.96283C11.831 -9.72239 12.0509 -9.97558 12.7107 -9.94393C13.6729 -9.88063 14.6351 -9.88063 15.5972 -9.94393C16.3395 -10.0072 16.4769 -9.65909 16.4769 -8.89953C16.4495 -5.22832 16.4494 -1.58877 16.4494 2.08244C16.4494 4.01299 17.0817 4.58266 18.6762 3.9497C20.4906 3.22179 22.3875 3.22179 24.2293 2.74706C24.5867 2.65212 24.8891 2.74706 25.0266 3.15849C25.274 3.98135 25.8238 4.04464 26.4836 4.04464C46.5244 4.01299 66.5926 4.04464 86.6334 4.04464C87.2932 4.04464 87.9255 4.07629 88.1729 3.12684C88.3103 2.62047 88.7227 2.68376 89.0801 2.77871C90.922 3.25343 92.8463 3.22179 94.6332 4.01299C94.7157 4.04464 94.8531 4.01299 94.9631 4.04464C96.7775 4.20288 96.7775 4.20288 96.7775 2.11409C96.7775 -1.55712 96.805 -5.19668 96.7775 -8.86789C96.7775 -9.62745 96.9149 -9.97558 97.6572 -9.91228C98.5919 -9.84898 99.5266 -9.81734 100.434 -9.91228C101.231 -9.97558 101.451 -9.72239 101.451 -8.77294C101.396 -3.96239 101.423 0.848159 101.423 5.65871C101.423 10.3743 101.396 15.1216 101.451 19.8372C101.451 20.755 101.258 21.0715 100.434 21.0082C99.4991 20.9132 98.5644 20.9449 97.6572 21.0082C96.9424 21.0715 96.75 20.755 96.75 19.9638C96.7775 16.1027 96.7225 12.2416 96.7775 8.34882C96.805 7.30442 96.5301 6.92464 95.6504 7.08288C95.403 7.11453 95.1555 7.11453 94.9081 7.08288C94.0009 6.92464 93.5061 7.27277 93.4236 8.41211C93.3961 8.98178 93.1762 9.51981 92.9013 9.99453C91.1144 13.1277 89.3275 16.2293 87.5406 19.3624C86.0836 21.8943 84.0493 23.6666 81.905 25.344C81.1352 25.9453 80.5579 26.6732 80.283 27.686C79.2659 31.5471 77.1766 34.5853 74.51 37.1172C74.0701 37.5286 73.7677 37.9717 73.6852 38.6363C72.998 44.1115 70.9087 48.9853 68.8469 53.8591C68.0771 55.6631 68.1046 57.4987 67.9947 59.366C67.7472 64.0499 67.5273 68.7339 66.4827 73.2912C66.4827 73.3229 66.4552 73.3862 66.4552 73.4178C65.8504 75.8231 65.8504 75.7915 63.7336 75.5699C61.3969 75.38 59.0602 75.1901 56.641 74.9686Z" fill="#3066CC"/>
<path d="M-12.1959 89.1787C-2.51918 85.0011 7.3775 81.7097 17.4941 79.3677C22.14 78.2917 26.841 77.4688 31.6244 76.8042C31.267 75.2534 30.8821 73.7976 30.5522 72.3101C29.5351 67.6578 30.0299 63.3537 32.7515 59.5242C33.2188 58.8596 33.5762 58.1 34.0435 57.4038C36.6002 53.4477 36.8751 47.7827 34.6483 43.2253C34.3734 44.1431 34.126 44.966 33.8786 45.7572C33.2738 47.751 32.5041 49.6499 31.4319 51.3589C30.6347 52.6565 29.645 53.6693 28.3804 54.3972C27.6932 54.777 27.1709 54.682 26.7035 53.9541C25.384 51.8337 24.1469 49.7132 23.1572 47.3712C22.6899 46.2636 22.195 45.1559 21.7277 44.0482C21.3153 43.0671 20.8205 42.1809 19.6659 42.4974C19.3085 42.5923 19.0611 42.4025 18.8961 42.0227C18.8137 41.8328 18.7312 41.6745 18.6212 41.4847C17.6316 39.5858 17.714 38.5097 19.0061 36.8956C19.391 36.3893 19.8858 36.6108 20.2982 36.6425C20.9304 36.6741 21.3978 36.5475 21.6452 35.788C21.7552 35.4398 21.9751 35.2499 22.36 35.1866C24.4768 34.9334 24.6692 35.0284 25.7413 37.1488C26.4286 38.5414 25.2465 40.8517 23.8445 40.8833C22.7173 40.915 22.7723 40.8833 23.2672 42.086C24.2568 44.4596 25.7138 46.2952 27.7207 47.6244C28.0506 47.2763 28.0506 46.7383 28.243 46.3269C28.6004 45.4407 28.7653 44.3647 29.2876 43.6367C30.4972 42.0227 31.0471 40.1238 31.5969 38.1932C32.0917 36.4209 33.0539 35.2816 34.8408 35.1233C36.0779 34.9967 37.2875 34.4904 38.3596 33.7625C38.9644 33.351 39.5692 32.908 39.7616 32.0218C37.6723 32.4649 37.5899 32.4965 36.4627 30.2178C35.3906 28.0658 34.3734 25.882 34.0161 23.3502C33.6862 20.9132 34.5384 19.046 36.1328 17.6534C37.7823 16.2293 39.7066 15.9761 41.6035 16.9255C42.1808 17.2104 42.5382 17.2737 43.1155 16.8939C45.0948 15.5647 46.7993 16.7673 46.7993 19.3941C46.7993 20.3436 46.6618 21.293 46.4419 22.2108C45.7271 25.3123 46.1395 28.4139 46.4144 31.5154C46.4694 32.0218 46.6618 32.3066 47.0467 32.5598C48.1188 33.3194 49.2185 33.984 50.483 34.1739C52.6823 34.522 53.7544 35.9462 54.0843 38.4464C54.3867 40.9783 54.3042 43.5418 54.4142 46.0737C54.4692 47.5928 54.5242 49.1119 54.8816 50.5994C55.8162 54.3655 55.7887 58.2266 55.6513 62.1194C55.5963 63.6069 55.6238 65.0627 55.6788 66.5502C55.7063 67.3414 55.9537 67.5629 56.5585 67.4363C56.641 67.4363 56.6959 67.4363 56.7784 67.4363C58.5378 66.8983 59.2526 68.1959 59.8299 69.7466C59.8849 69.9365 60.0498 70.0948 59.9674 70.3163C59.665 70.9493 59.2801 71.5822 59.0327 72.2468C58.6753 73.2279 57.9605 72.8482 57.3832 72.9115C56.9983 72.9431 56.531 72.8165 56.421 73.3862C56.0362 75.0636 54.9365 74.9053 53.8094 74.9053C53.0672 74.9053 52.6823 74.5888 52.1875 73.9242C50.8404 72.1203 51.7476 70.6961 52.5173 69.2086C52.5723 69.1137 52.6273 68.9238 52.7098 68.9238C54.5242 68.7022 53.8094 67.1831 53.6994 66.1704C53.4245 63.7334 52.6548 61.3915 52.05 59.0178C51.5827 57.2455 51.2528 55.4416 51.2253 53.5743C51.1703 50.8209 50.3731 48.1625 50.3731 45.3774C49.4934 49.5866 47.9814 53.6376 48.3113 58.1C48.4212 59.6825 48.9161 61.1383 49.3834 62.5941C50.7579 66.6767 50.9229 70.7594 49.6583 74.8737C49.3009 76.013 49.9882 75.7598 50.4555 75.7598C61.6443 75.8548 72.6681 77.5321 83.5819 80.2855C91.6917 82.3427 99.609 85.0011 107.416 88.2609C107.444 88.7356 107.169 88.5458 106.977 88.5141C97.9596 85.3493 88.8052 82.7858 79.5133 80.9818C63.8985 77.9119 48.2288 77.0574 32.4491 78.7981C17.2742 80.4754 2.48414 84.1466 -12.0035 89.4952C-12.2234 89.4952 -12.2509 89.4003 -12.1959 89.1787Z" fill="#ED2707"/>
<path d="M108.516 5.50045C108.516 0.721545 108.544 -4.02571 108.489 -8.80461C108.489 -9.62747 108.654 -10.0072 109.423 -9.9123C110.275 -9.849 111.128 -9.849 111.98 -9.9123C112.805 -9.9756 113.08 -9.72241 113.08 -8.70966C113.025 -5.22835 113.107 -1.71538 113.025 1.76594C112.997 2.96858 113.19 3.41165 114.344 3.34836C116.653 3.22176 118.99 3.34836 121.299 3.28506C121.932 3.28506 122.151 3.47495 122.179 4.23451C122.234 7.62089 122.261 7.58924 119.347 7.62088C117.533 7.62088 115.719 7.65253 113.877 7.62088C113.217 7.58924 113.025 7.87407 113.052 8.60198C113.08 12.3681 113.052 16.1659 113.08 19.9321C113.08 20.8182 112.86 21.0714 112.117 21.0081C111.238 20.9448 110.33 20.9448 109.451 21.0081C108.681 21.0714 108.489 20.755 108.489 19.9004C108.544 15.1215 108.516 10.311 108.516 5.50045Z" fill="#3066CC"/>
<path d="M4.76587 5.69037C4.76587 10.3427 4.73837 14.995 4.79336 19.6473C4.82085 20.8183 4.49096 21.1348 3.52878 21.0082C2.75904 20.9132 1.96181 20.9132 1.16458 21.0082C0.312361 21.1031 0.174906 20.6917 0.174906 19.8055C0.257378 16.2293 0.174906 12.5897 0.257379 8.9818C0.284869 7.77916 -0.0725096 7.55762 -1.0072 7.58927C-3.28893 7.65256 -5.57066 7.58927 -7.87989 7.62092C-8.59465 7.62092 -8.86956 7.46267 -8.86956 6.54487C-8.86956 3.28509 -8.89705 3.28509 -6.03801 3.28509C-4.2786 3.28509 -2.54668 3.25344 -0.787271 3.31674C0.00996142 3.34839 0.257379 3.12685 0.229888 2.1774C0.174907 -1.49381 0.229889 -5.13337 0.202398 -8.80458C0.202398 -9.65909 0.367341 -9.97557 1.13708 -9.91227C1.9893 -9.84898 2.869 -9.81733 3.69373 -9.91227C4.6559 -10.0389 4.79336 -9.56414 4.76587 -8.58304C4.73838 -3.83579 4.76587 0.943113 4.76587 5.69037Z" fill="#3066CC"/>
<path d="M6.00295 5.50046C6.00295 0.879804 6.00295 -3.70921 6.00295 -8.32987C6.00295 -9.94393 6.00295 -9.94393 7.43247 -9.94393C8.06476 -9.94393 8.72454 -9.88064 9.35683 -9.97558C10.374 -10.1022 10.6764 -9.75404 10.6764 -8.51976C10.6214 -2.75976 10.6489 3.00024 10.6489 8.76024C10.6489 12.4947 10.6214 16.2293 10.6489 19.9954C10.6489 20.755 10.5114 21.1347 9.76919 21.0714C8.8345 20.9765 7.89982 21.0082 6.99262 21.0714C6.19539 21.1347 5.97546 20.8816 5.97546 19.9321C6.03045 15.1216 6.00295 10.311 6.00295 5.50046Z" fill="#3066CC"/>
<path d="M107.279 5.56378C107.279 10.1211 107.279 14.7102 107.279 19.2675C107.279 21.0715 107.279 21.0715 105.685 21.0715C105.107 21.0715 104.53 20.9765 103.98 21.1031C102.825 21.3247 102.661 20.7233 102.661 19.5524C102.716 11.4504 102.688 3.3484 102.688 -4.75358C102.688 -6.11446 102.716 -7.47534 102.688 -8.83622C102.661 -9.59578 102.798 -9.97556 103.54 -9.91226C104.502 -9.84897 105.465 -9.84897 106.427 -9.91226C107.169 -9.97556 107.306 -9.59578 107.306 -8.83622C107.279 -4.05732 107.279 0.753232 107.279 5.56378Z" fill="#2F65CC"/>
<path d="M54.0568 118.58C50.1806 111.776 46.2769 105.193 42.0159 98.5783C41.9884 99.1479 41.9609 99.4011 41.9609 99.686C41.9884 105.193 42.0159 110.7 42.0709 116.238C42.0983 117.915 42.1258 117.915 40.7238 117.915C40.7238 115.858 40.7238 113.833 40.7238 111.776C40.7513 106.016 40.7513 100.256 40.7788 94.4956C40.7788 93.8943 40.5039 92.9765 40.9437 92.8183C41.4935 92.6284 41.741 93.5778 42.0434 94.0842C45.5347 99.7492 49.026 105.414 52.5174 111.079C52.6548 111.301 52.7923 111.491 53.1496 111.997C53.1496 110.605 53.1496 109.56 53.1496 108.484C53.1496 103.579 53.1221 98.7049 53.1221 93.7994C53.1221 93.293 53.0947 92.8499 53.6995 93.0715C54.0843 93.198 54.6891 92.7233 54.6341 93.831C54.2768 101.965 54.1118 110.098 54.1943 118.264C54.2218 118.232 54.1943 118.264 54.0568 118.58Z" fill="#232323"/>
<path d="M67.2799 96.0464C65.6304 95.6033 63.981 95.4134 62.359 95.1602C61.4518 95.0337 61.0395 95.1286 61.067 96.3945C61.122 98.6416 61.0395 100.92 60.957 103.167C60.9295 103.99 61.1495 104.243 61.8642 104.212C63.2662 104.18 64.6408 104.275 66.0428 104.212C67.2249 104.18 66.5926 105.161 66.7026 105.667C66.8675 106.554 66.2627 106.142 65.9603 106.111C64.5858 106.016 63.1838 105.857 61.8092 105.699C61.2594 105.636 60.957 105.762 60.9845 106.522C61.012 109.497 61.012 112.44 60.957 115.415C60.957 116.175 61.2044 116.301 61.7817 116.27C63.4312 116.175 65.0531 116.143 66.7026 115.985C67.2799 115.922 67.4998 116.08 67.4173 116.713C67.3624 117.251 67.6923 118.01 66.7301 117.915C64.3109 117.694 61.8917 117.694 59.445 117.852C58.9227 117.884 58.8952 117.631 58.8952 117.124C59.1151 109.402 59.1976 101.68 59.0052 93.9576C58.9777 93.2297 59.1426 93.0715 59.7749 93.1664C61.8092 93.4196 63.8161 93.6411 65.8504 93.831C67.3624 93.9893 67.3624 93.9893 67.2799 96.0464Z" fill="#232323"/>
<path d="M70.1939 113.39C70.7437 114.276 71.1286 115.035 71.5959 115.668C73.1354 117.725 75.6096 117.472 76.8467 115.194C78.1112 112.852 77.5889 110.003 75.5271 108.358C74.6199 107.63 73.6302 107.028 72.723 106.332C70.2489 104.37 69.3967 100.445 70.7437 97.344C71.6784 95.1919 73.8502 94.3374 76.2144 95.1919C78.5786 96.0147 78.9635 96.9009 78.0563 99.7176C77.7813 99.1163 77.5614 98.5782 77.314 98.0719C76.5168 96.5844 75.1697 95.8565 73.9876 96.2363C72.7505 96.616 72.0358 97.9453 72.0358 99.8125C72.0083 101.616 72.6681 103.009 73.9326 103.99C75.0323 104.845 76.1869 105.573 77.2315 106.49C79.6507 108.611 80.1181 112.409 78.4411 115.447C76.8742 118.295 73.6027 119.308 70.9911 117.789C70.1389 117.282 69.3692 116.713 69.8915 115.32C70.0839 114.751 70.0839 114.149 70.1939 113.39Z" fill="#222222"/>
<path d="M89.7948 102.376C89.3275 101.173 88.8602 100.161 87.9805 99.4961C87.0183 98.7998 86.0011 98.42 84.9565 99.1479C83.9393 99.8442 83.7469 101.015 83.8568 102.281C83.9668 103.642 84.5441 104.718 85.5063 105.446C86.6059 106.3 87.7605 107.028 88.8602 107.883C90.3721 109.054 91.3343 110.605 91.1969 112.82C91.0044 116.27 88.1454 118.833 84.9015 118.422C84.6816 118.39 84.4891 118.358 84.2692 118.295C81.7126 117.726 81.3552 117.061 82.1249 113.991C82.4823 114.561 82.7847 115.099 83.1421 115.573C84.1043 116.934 85.3688 117.504 86.8533 117.093C88.1454 116.744 88.9151 115.668 89.2175 114.213C89.5749 112.504 89.0526 111.079 87.8705 110.098C86.8258 109.212 85.6987 108.516 84.5991 107.725C82.4823 106.206 81.7126 103.958 82.0974 101.173C82.3998 98.8314 83.8843 97.4706 85.9461 97.6605C86.9633 97.7554 87.9255 98.0402 88.8052 98.6099C90.5921 99.6859 90.6746 99.9391 89.7948 102.376Z" fill="#222222"/>
<path d="M32.669 107.756C32.6965 110.256 32.6415 113.643 32.8614 116.998C32.9164 117.726 32.8339 118.105 32.0917 117.82C31.8993 117.757 31.6518 117.757 31.4594 117.82C30.6072 118.137 30.6347 117.567 30.6622 116.871C30.6897 110.636 30.7172 104.37 30.7446 98.1352C30.7446 97.8187 30.7172 97.4706 30.7446 97.1541C30.8821 96.0147 30.4423 95.8565 29.59 96.1097C28.5179 96.4262 27.4183 96.6477 26.3461 96.8692C26.0712 96.9325 25.4939 97.5022 25.5214 96.5528C25.5489 95.9831 25.109 95.1286 26.1812 95.002C28.7653 94.7172 31.3494 94.3374 33.9336 93.9892C34.9507 93.8626 35.9954 93.6728 37.0125 93.4829C37.4524 93.4196 37.8923 93.3879 37.6723 94.0842C37.5349 94.5906 38.2496 95.6033 37.04 95.54C35.9404 95.4767 34.8408 95.54 33.7137 95.54C32.9439 95.54 32.614 95.8565 32.6415 96.8376C32.6965 100.256 32.669 103.579 32.669 107.756Z" fill="#232323"/>
<path d="M16.9718 97.0908C17.2742 98.4517 16.9168 98.9897 15.6797 99.0847C14.3327 99.1796 13.0131 99.686 11.6935 99.9392C11.1437 100.066 10.9238 100.319 10.9238 100.984C10.9513 102.756 10.9238 104.528 10.8413 106.3C10.7864 107.218 11.1162 107.313 11.776 107.155C13.0681 106.87 14.3602 106.585 15.6797 106.364C15.9546 106.332 16.5319 105.699 16.5044 106.649C16.5044 107.155 16.9168 107.978 15.8172 107.978C14.4426 107.978 13.0406 108.294 11.6661 108.389C11.0063 108.421 10.8413 108.737 10.8688 109.465C10.9238 112.029 10.8413 114.561 10.9513 117.124C11.0063 118.58 10.1266 117.947 9.60425 118.074C8.88949 118.264 8.80701 117.82 8.8345 117.124C9.08192 111.522 9.08192 105.952 8.862 100.351C8.83451 99.9075 8.75203 99.4644 9.32934 99.3062C11.8585 98.5783 14.4151 97.8187 16.9718 97.0908Z" fill="#222222"/>
<path d="M22.7448 95.8882C22.7448 98.4833 22.7723 101.047 22.7448 103.642C22.6624 108.073 22.7998 112.504 22.9922 116.934C23.0197 117.567 23.1297 118.295 22.25 117.947C21.6727 117.757 20.628 118.77 20.7105 116.934C21.0129 110.541 20.9854 104.117 20.7655 97.7238C20.738 96.6161 20.9029 96.0464 21.9476 96.0781C22.2225 96.0781 22.5249 95.9198 22.7448 95.8882Z" fill="#232323"/>
<path d="M51.5002 69.3985C51.4727 66.0754 50.2906 63.1637 49.4934 60.1255C48.6411 56.8657 49.1085 53.7009 50.0157 50.2512C50.5105 52.1185 50.3181 53.7642 50.483 55.3783C50.8129 58.3215 51.8301 61.075 52.4349 63.9233C52.5723 64.5879 52.8197 65.2842 52.8472 65.9488C52.9022 66.7084 53.4245 67.7211 52.1874 68.0692C51.9125 68.1958 51.7476 68.9554 51.5002 69.3985Z" fill="#3065CC"/>
<path d="M106.977 88.4508C107.114 88.3875 107.334 88.4508 107.416 88.1976C108.983 88.7357 110.495 89.4636 111.952 90.413C110.275 89.7484 108.626 89.1154 106.977 88.4508Z" fill="#E5746E"/>
<path d="M50.9229 73.1646C51.3078 73.7026 51.5827 74.1457 51.6376 74.747C50.4281 74.8736 50.4281 74.8736 50.9229 73.1646Z" fill="#3E6DC9"/>
</g>
<defs>
<clipPath id="clip0_12_33">
<rect width="149" height="144" fill="white"/>
</clipPath>
</defs>
</svg>
