<svg width="149" height="144" viewBox="0 0 149 144" fill="none" xmlns="http://www.w3.org/2000/svg">
<path d="M80.3006 88.9002C80.438 88.0457 80.7404 87.5709 81.4827 87.7292C82.5548 87.9507 82.9947 87.2228 83.5445 86.3367C84.5341 84.7542 84.5616 83.4883 83.5995 81.8426C82.9672 80.7349 82.3899 80.1336 81.2627 80.3551C80.3006 80.545 80.0257 80.0703 80.0806 78.9942C80.1631 76.5573 80.1356 74.1521 80.1631 71.7151C80.1906 69.7846 80.1356 67.854 79.6683 65.9551C78.871 62.6637 78.8161 59.309 78.8436 55.9226C78.871 54.2769 78.6511 52.6628 78.3487 51.0488C77.9639 48.96 76.8367 47.7573 75.0498 47.3142C74.0877 47.0611 73.1255 46.8079 72.1908 46.3331C71.1461 45.7951 70.5963 45.0356 70.8437 43.5797C71.8884 44.1494 72.6581 45.0989 73.3454 46.1116C73.9502 47.0294 74.6375 46.9345 75.4347 46.5863C76.2869 46.2066 76.3694 45.447 76.177 44.5608C76.0395 43.8646 75.902 43.2 75.957 42.5037C75.957 42.3138 75.957 41.9973 75.8471 41.934C74.2251 40.9213 74.9674 39.1173 74.6925 37.6615C75.957 36.3323 75.0773 34.6866 75.1873 33.1991C75.4347 29.6228 78.4312 27.3441 81.7026 28.3569C84.1218 29.0848 85.3039 30.8571 85.2764 33.7055C85.2764 34.4334 85.1939 35.1929 85.2214 35.9208C85.2214 36.4272 84.7266 37.2184 85.7163 37.2817C85.7437 37.2817 85.7437 37.345 85.7712 37.3767C86.0736 37.9147 85.6063 41.4593 85.084 41.7125C84.5342 41.9973 84.5891 42.3455 84.5616 42.8518C84.5342 43.4531 84.4517 44.0861 84.3142 44.6558C84.0943 45.5736 84.3417 46.1749 85.0565 46.5547C85.8262 46.9661 86.541 47.1244 87.1458 46.1749C87.8056 45.1305 88.6028 44.2444 89.565 43.5797C90.5546 42.9151 91.5993 42.567 92.7539 42.9784C93.2487 43.1683 93.5236 43.0734 93.7436 42.5037C95.0081 39.1806 97.0424 36.7753 100.149 35.7309C100.534 35.6044 100.726 35.2879 100.891 34.9081C102.183 31.9964 104.08 29.6861 106.444 27.8505C108.176 26.5213 109.826 25.0655 111.53 23.7362C112.162 23.2298 112.162 22.8817 111.723 22.1855C111.145 21.2677 110.485 20.9512 109.496 20.9512C89.9498 20.9828 70.4039 20.9828 50.858 20.9512C49.5934 20.9512 49.0985 21.8057 48.5487 22.7235C48.1913 23.3248 48.7412 23.5147 49.0161 23.7362C50.8305 25.2553 52.6998 26.7428 54.5142 28.2303C55.6139 29.1481 56.686 30.0975 57.5657 31.3002C57.9231 31.7749 58.0605 32.1547 57.7306 32.7876C56.3286 35.5094 56.741 38.1046 57.9231 40.858C58.6378 42.5353 59.2426 44.3077 60.1773 45.8584C60.4247 46.2698 60.5622 46.7129 60.9746 47.0294C59.545 47.9472 59.5175 47.9472 58.6653 46.4914C57.7856 45.0356 57.1533 43.4215 56.6585 41.7441C56.4111 40.8896 56.0812 40.0668 55.3664 39.5604C51.8476 37.1235 49.3185 33.6105 47.2017 29.6228C46.1845 27.7239 45.1399 25.8883 44.0677 24.0211C43.7653 23.483 43.6004 22.945 43.4354 22.3437C43.3255 21.869 43.4904 21.1094 42.8856 21.0461C42.0334 20.9512 41.1812 20.9828 40.329 21.1094C40.0266 21.1727 40.164 21.774 40.164 22.1222C40.164 25.9833 40.1366 29.8444 40.164 33.7371C40.164 34.6233 40.0266 35.003 39.1744 34.9081C38.3496 34.8131 37.5249 34.8131 36.7002 34.9081C35.7655 35.003 35.4906 34.6866 35.5181 33.5789C35.5731 25.9833 35.5456 18.356 35.5456 10.7604C35.5456 8.82985 35.5731 6.8993 35.5181 4.96875C35.4906 4.20919 35.7105 3.956 36.3703 3.98765C37.3325 4.05095 38.2947 4.05095 39.2568 3.98765C39.9991 3.92435 40.1365 4.27249 40.1365 5.03205C40.1091 8.70325 40.1091 12.3428 40.1091 16.014C40.1091 17.9446 40.7413 18.5142 42.3358 17.8813C44.1502 17.1534 46.0471 17.1534 47.8889 16.6786C48.2463 16.5837 48.5487 16.6786 48.6862 17.0901C48.9336 17.9129 49.4834 17.9762 50.1432 17.9762C70.184 17.9446 90.2522 17.9762 110.293 17.9762C110.953 17.9762 111.585 18.0079 111.832 17.0584C111.97 16.552 112.382 16.6153 112.74 16.7103C114.582 17.185 116.506 17.1534 118.293 17.9446C118.375 17.9762 118.513 17.9446 118.623 17.9762C120.437 18.1345 120.437 18.1345 120.437 16.0457C120.437 12.3745 120.465 8.7349 120.437 5.06369C120.437 4.30413 120.575 3.956 121.317 4.0193C122.251 4.0826 123.186 4.11424 124.093 4.0193C124.891 3.956 125.111 4.20919 125.111 5.15864C125.056 9.96919 125.083 14.7797 125.083 19.5903C125.083 24.3059 125.056 29.0531 125.111 33.7687C125.111 34.6866 124.918 35.003 124.093 34.9397C123.159 34.8448 122.224 34.8764 121.317 34.9397C120.602 35.003 120.41 34.6866 120.41 33.8953C120.437 30.0342 120.382 26.1731 120.437 22.2804C120.465 21.236 120.19 20.8562 119.31 21.0145C119.063 21.0461 118.815 21.0461 118.568 21.0145C117.661 20.8562 117.166 21.2044 117.083 22.3437C117.056 22.9134 116.836 23.4514 116.561 23.9261C114.774 27.0593 112.987 30.1608 111.2 33.294C109.743 35.8259 107.709 37.5982 105.565 39.2756C104.795 39.8769 104.218 40.6048 103.943 41.6175C102.925 45.4786 100.836 48.5169 98.1696 51.0488C97.7297 51.4602 97.4273 51.9033 97.3449 52.5679C96.6576 58.043 94.5683 62.9169 92.5065 67.7907C91.7367 69.5947 91.7642 71.4303 91.6543 73.2975C91.4068 77.9815 91.1869 82.6655 90.1423 87.2228C90.1423 87.2545 90.1148 87.3178 90.1148 87.3494C89.51 89.7547 89.51 89.723 87.3932 89.5015C85.0565 89.3116 82.7198 89.1217 80.3006 88.9002Z" fill="#3066CC"/>
<path d="M11.4637 103.11C21.1404 98.9328 31.0371 95.6413 41.1537 93.2994C45.7996 92.2233 50.5006 91.4005 55.284 90.7359C54.9266 89.1851 54.5417 87.7293 54.2118 86.2418C53.1947 81.5895 53.6895 77.2853 56.4111 73.4559C56.8784 72.7912 57.2358 72.0317 57.7032 71.3354C60.2598 67.3794 60.5347 61.7143 58.308 57.157C58.033 58.0748 57.7856 58.8976 57.5382 59.6888C56.9334 61.6827 56.1637 63.5816 55.0915 65.2906C54.2943 66.5882 53.3046 67.6009 52.0401 68.3288C51.3528 68.7086 50.8305 68.6137 50.3631 67.8857C49.0436 65.7653 47.8065 63.6449 46.8168 61.3029C46.3495 60.1952 45.8546 59.0875 45.3873 57.9798C44.9749 56.9987 44.4801 56.1126 43.3255 56.429C42.9681 56.524 42.7207 56.3341 42.5557 55.9543C42.4733 55.7644 42.3908 55.6062 42.2808 55.4163C41.2912 53.5174 41.3736 52.4414 42.6657 50.8273C43.0506 50.3209 43.5454 50.5425 43.9578 50.5741C44.5901 50.6057 45.0574 50.4792 45.3048 49.7196C45.4148 49.3715 45.6347 49.1816 46.0196 49.1183C48.1364 48.8651 48.3288 48.96 49.4009 51.0805C50.0882 52.473 48.9061 54.7833 47.5041 54.815C46.377 54.8466 46.4319 54.815 46.9268 56.0176C47.9164 58.3912 49.3734 60.2268 51.3803 61.5561C51.7102 61.2079 51.7102 60.6699 51.9026 60.2585C52.26 59.3723 52.4249 58.2963 52.9473 57.5684C54.1568 55.9543 54.7067 54.0554 55.2565 52.1249C55.7513 50.3526 56.7135 49.2132 58.5004 49.055C59.7375 48.9284 60.9471 48.422 62.0192 47.6941C62.624 47.2827 63.2288 46.8396 63.4212 45.9534C61.3319 46.3965 61.2495 46.4282 60.1223 44.1495C59.0502 41.9974 58.033 39.8137 57.6757 37.2818C57.3458 34.8449 58.198 32.9776 59.7925 31.5851C61.4419 30.1609 63.3663 29.9077 65.2631 30.8572C65.8404 31.142 66.1978 31.2053 66.7751 30.8255C68.7544 29.4963 70.4589 30.6989 70.4589 33.3257C70.4589 34.2752 70.3214 35.2246 70.1015 36.1424C69.3867 39.244 69.7991 42.3455 70.074 45.4471C70.129 45.9534 70.3214 46.2383 70.7063 46.4915C71.7784 47.251 72.8781 47.9156 74.1426 48.1055C76.3419 48.4537 77.414 49.8778 77.7439 52.3781C78.0463 54.9099 77.9639 57.4734 78.0738 60.0053C78.1288 61.5244 78.1838 63.0435 78.5412 64.531C79.4759 68.2972 79.4484 72.1583 79.3109 76.051C79.2559 77.5385 79.2834 78.9943 79.3384 80.4818C79.3659 81.273 79.6133 81.4945 80.2181 81.3679C80.3006 81.3679 80.3556 81.3679 80.438 81.3679C82.1974 80.8299 82.9122 82.1275 83.4895 83.6783C83.5445 83.8682 83.7094 84.0264 83.627 84.2479C83.3246 84.8809 82.9397 85.5139 82.6923 86.1785C82.3349 87.1596 81.6201 86.7798 81.0428 86.8431C80.6579 86.8748 80.1906 86.7482 80.0806 87.3178C79.6958 88.9952 78.5961 88.837 77.469 88.837C76.7268 88.837 76.3419 88.5205 75.8471 87.8559C74.5 86.0519 75.4072 84.6277 76.177 83.1403C76.2319 83.0453 76.2869 82.8554 76.3694 82.8554C78.1838 82.6339 77.469 81.1148 77.3591 80.102C77.0841 77.6651 76.3144 75.3231 75.7096 72.9495C75.2423 71.1772 74.9124 69.3732 74.8849 67.506C74.8299 64.7526 74.0327 62.0941 74.0327 59.309C73.153 63.5183 71.641 67.5693 71.9709 72.0317C72.0808 73.6141 72.5757 75.0699 73.043 76.5257C74.4175 80.6084 74.5825 84.691 73.3179 88.8053C72.9605 89.9446 73.6478 89.6915 74.1151 89.6915C85.3039 89.7864 96.3277 91.4638 107.242 94.2172C115.351 96.2743 123.269 98.9328 131.076 102.193C131.104 102.667 130.829 102.477 130.636 102.446C121.619 99.2809 112.465 96.7174 103.173 94.9134C87.5581 91.8435 71.8884 90.989 56.1087 92.7297C40.9338 94.4071 26.1437 98.0783 11.6561 103.427C11.4362 103.427 11.4087 103.332 11.4637 103.11Z" fill="#ED2707"/>
<path d="M132.176 19.4321C132.176 14.6532 132.203 9.90599 132.148 5.12709C132.148 4.30424 132.313 3.92446 133.083 4.0194C133.935 4.0827 134.787 4.0827 135.64 4.0194C136.464 3.9561 136.739 4.20929 136.739 5.22204C136.684 8.70336 136.767 12.2163 136.684 15.6976C136.657 16.9003 136.849 17.3434 138.004 17.2801C140.313 17.1535 142.65 17.2801 144.959 17.2168C145.591 17.2168 145.811 17.4067 145.839 18.1662C145.894 21.5526 145.921 21.5209 143.007 21.5526C141.193 21.5526 139.378 21.5842 137.536 21.5526C136.877 21.5209 136.684 21.8058 136.712 22.5337C136.739 26.2998 136.712 30.0976 136.739 33.8638C136.739 34.7499 136.519 35.0031 135.777 34.9398C134.897 34.8765 133.99 34.8765 133.11 34.9398C132.341 35.0031 132.148 34.6867 132.148 33.8321C132.203 29.0532 132.176 24.2427 132.176 19.4321Z" fill="#3066CC"/>
<path d="M28.4255 19.622C28.4255 24.2743 28.398 28.9266 28.453 33.5789C28.4805 34.7499 28.1506 35.0664 27.1884 34.9398C26.4186 34.8449 25.6214 34.8449 24.8242 34.9398C23.972 35.0348 23.8345 34.6233 23.8345 33.7372C23.917 30.1609 23.8345 26.5213 23.917 22.9134C23.9445 21.7108 23.5871 21.4893 22.6524 21.5209C20.3707 21.5842 18.0889 21.5209 15.7797 21.5526C15.065 21.5526 14.79 21.3943 14.79 20.4765C14.79 17.2167 14.7626 17.2167 17.6216 17.2167C19.381 17.2167 21.1129 17.1851 22.8723 17.2484C23.6696 17.28 23.917 17.0585 23.8895 16.109C23.8345 12.4378 23.8895 8.79827 23.862 5.12706C23.862 4.27256 24.0269 3.95607 24.7967 4.01937C25.6489 4.08266 26.5286 4.11431 27.3533 4.01937C28.3155 3.89277 28.453 4.3675 28.4255 5.3486C28.398 10.0959 28.4255 14.8748 28.4255 19.622Z" fill="#3066CC"/>
<path d="M29.6626 19.4321C29.6626 14.8114 29.6626 10.2224 29.6626 5.60177C29.6626 3.98771 29.6626 3.98771 31.0921 3.98771C31.7244 3.98771 32.3841 4.05101 33.0164 3.95606C34.0336 3.82947 34.336 4.1776 34.336 5.41188C34.281 11.1719 34.3085 16.9319 34.3085 22.6919C34.3085 26.4264 34.281 30.1609 34.3085 33.927C34.3085 34.6866 34.171 35.0664 33.4288 35.0031C32.4941 34.9081 31.5594 34.9398 30.6522 35.0031C29.855 35.0664 29.6351 34.8132 29.6351 33.8637C29.6901 29.0532 29.6626 24.2427 29.6626 19.4321Z" fill="#3066CC"/>
<path d="M130.939 19.4954C130.939 24.0528 130.939 28.6418 130.939 33.1992C130.939 35.0031 130.939 35.0031 129.344 35.0031C128.767 35.0031 128.189 34.9082 127.64 35.0348C126.485 35.2563 126.32 34.655 126.32 33.484C126.375 25.382 126.348 17.28 126.348 9.17806C126.348 7.81718 126.375 6.4563 126.348 5.09542C126.32 4.33586 126.458 3.95608 127.2 4.01938C128.162 4.08267 129.124 4.08267 130.086 4.01938C130.829 3.95608 130.966 4.33586 130.966 5.09542C130.939 9.87432 130.939 14.6849 130.939 19.4954Z" fill="#2F65CC"/>
<path d="M77.7164 132.512C73.8402 125.707 69.9365 119.124 65.6755 112.51C65.648 113.08 65.6205 113.333 65.6205 113.618C65.648 119.124 65.6755 124.631 65.7305 130.17C65.758 131.847 65.7854 131.847 64.3834 131.847C64.3834 129.79 64.3834 127.764 64.3834 125.707C64.4109 119.947 64.4109 114.187 64.4384 108.427C64.4384 107.826 64.1635 106.908 64.6033 106.75C65.1532 106.56 65.4006 107.509 65.703 108.016C69.1943 113.681 72.6856 119.346 76.177 125.011C76.3144 125.232 76.4519 125.422 76.8092 125.929C76.8092 124.536 76.8092 123.492 76.8092 122.416C76.8092 117.51 76.7818 112.636 76.7818 107.731C76.7818 107.225 76.7543 106.781 77.3591 107.003C77.7439 107.13 78.3487 106.655 78.2937 107.763C77.9364 115.896 77.7714 124.03 77.8539 132.195C77.8814 132.163 77.8539 132.195 77.7164 132.512Z" fill="#232323"/>
<path d="M90.9395 109.978C89.29 109.535 87.6406 109.345 86.0186 109.092C85.1115 108.965 84.6991 109.06 84.7266 110.326C84.7816 112.573 84.6991 114.852 84.6166 117.099C84.5891 117.922 84.8091 118.175 85.5238 118.143C86.9258 118.112 88.3004 118.207 89.7024 118.143C90.8845 118.112 90.2522 119.093 90.3622 119.599C90.5271 120.485 89.9223 120.074 89.6199 120.042C88.2454 119.947 86.8434 119.789 85.4688 119.631C84.919 119.567 84.6166 119.694 84.6441 120.454C84.6716 123.429 84.6716 126.372 84.6166 129.347C84.6166 130.106 84.864 130.233 85.4413 130.201C87.0908 130.106 88.7127 130.075 90.3622 129.917C90.9395 129.853 91.1594 130.011 91.0769 130.644C91.022 131.182 91.3519 131.942 90.3897 131.847C87.9705 131.626 85.5513 131.626 83.1046 131.784C82.5823 131.815 82.5548 131.562 82.5548 131.056C82.7747 123.334 82.8572 115.611 82.6648 107.889C82.6373 107.161 82.8022 107.003 83.4345 107.098C85.4688 107.351 87.4757 107.573 89.51 107.763C91.022 107.921 91.022 107.921 90.9395 109.978Z" fill="#232323"/>
<path d="M93.8535 127.321C94.4033 128.208 94.7882 128.967 95.2555 129.6C96.795 131.657 99.2692 131.404 100.506 129.125C101.771 126.783 101.249 123.935 99.1867 122.289C98.2795 121.561 97.2899 120.96 96.3827 120.264C93.9085 118.302 93.0563 114.377 94.4033 111.276C95.338 109.124 97.5098 108.269 99.874 109.124C102.238 109.946 102.623 110.833 101.716 113.649C101.441 113.048 101.221 112.51 100.974 112.004C100.176 110.516 98.8293 109.788 97.6472 110.168C96.4101 110.548 95.6954 111.877 95.6954 113.744C95.6679 115.548 96.3277 116.941 97.5922 117.922C98.6919 118.776 99.8465 119.504 100.891 120.422C103.31 122.542 103.778 126.34 102.101 129.379C100.534 132.227 97.2624 133.24 94.6507 131.72C93.7985 131.214 93.0288 130.644 93.5511 129.252C93.7435 128.682 93.7435 128.081 93.8535 127.321Z" fill="#222222"/>
<path d="M113.454 116.308C112.987 115.105 112.52 114.092 111.64 113.428C110.678 112.731 109.661 112.352 108.616 113.08C107.599 113.776 107.406 114.947 107.516 116.213C107.626 117.574 108.204 118.65 109.166 119.378C110.266 120.232 111.42 120.96 112.52 121.815C114.032 122.986 114.994 124.536 114.856 126.752C114.664 130.201 111.805 132.765 108.561 132.353C108.341 132.322 108.149 132.29 107.929 132.227C105.372 131.657 105.015 130.993 105.785 127.923C106.142 128.492 106.444 129.03 106.802 129.505C107.764 130.866 109.028 131.436 110.513 131.024C111.805 130.676 112.575 129.6 112.877 128.144C113.235 126.435 112.712 125.011 111.53 124.03C110.485 123.144 109.358 122.448 108.259 121.656C106.142 120.137 105.372 117.89 105.757 115.105C106.059 112.763 107.544 111.402 109.606 111.592C110.623 111.687 111.585 111.972 112.465 112.542C114.252 113.618 114.334 113.871 113.454 116.308Z" fill="#222222"/>
<path d="M56.3286 121.688C56.3561 124.188 56.3011 127.575 56.521 130.929C56.576 131.657 56.4936 132.037 55.7513 131.752C55.5589 131.689 55.3115 131.689 55.119 131.752C54.2668 132.069 54.2943 131.499 54.3218 130.803C54.3493 124.568 54.3768 118.302 54.4043 112.067C54.4043 111.75 54.3768 111.402 54.4043 111.086C54.5417 109.946 54.1019 109.788 53.2496 110.041C52.1775 110.358 51.0779 110.579 50.0057 110.801C49.7308 110.864 49.1535 111.434 49.181 110.484C49.2085 109.915 48.7686 109.06 49.8408 108.934C52.4249 108.649 55.0091 108.269 57.5932 107.921C58.6103 107.794 59.655 107.604 60.6722 107.415C61.112 107.351 61.5519 107.32 61.3319 108.016C61.1945 108.522 61.9092 109.535 60.6996 109.472C59.6 109.408 58.5004 109.472 57.3733 109.472C56.6035 109.472 56.2736 109.788 56.3011 110.769C56.3561 114.187 56.3286 117.51 56.3286 121.688Z" fill="#232323"/>
<path d="M40.6314 111.022C40.9338 112.383 40.5764 112.921 39.3393 113.016C37.9923 113.111 36.6727 113.618 35.3532 113.871C34.8033 113.997 34.5834 114.251 34.5834 114.915C34.6109 116.688 34.5834 118.46 34.5009 120.232C34.446 121.15 34.7758 121.245 35.4356 121.087C36.7277 120.802 38.0198 120.517 39.3393 120.295C39.6142 120.264 40.1915 119.631 40.164 120.58C40.164 121.087 40.5764 121.91 39.4768 121.91C38.1022 121.91 36.7002 122.226 35.3257 122.321C34.6659 122.353 34.5009 122.669 34.5284 123.397C34.5834 125.96 34.5009 128.492 34.6109 131.056C34.6659 132.512 33.7862 131.879 33.2639 132.005C32.5491 132.195 32.4666 131.752 32.4941 131.056C32.7415 125.454 32.7415 119.884 32.5216 114.282C32.4941 113.839 32.4116 113.396 32.9889 113.238C35.5181 112.51 38.0747 111.75 40.6314 111.022Z" fill="#222222"/>
<path d="M46.4044 109.82C46.4044 112.415 46.4319 114.979 46.4044 117.574C46.322 122.004 46.4594 126.435 46.6519 130.866C46.6793 131.499 46.7893 132.227 45.9096 131.879C45.3323 131.689 44.2876 132.702 44.3701 130.866C44.6725 124.473 44.645 118.048 44.4251 111.655C44.3976 110.548 44.5626 109.978 45.6072 110.01C45.8821 110.01 46.1845 109.851 46.4044 109.82Z" fill="#232323"/>
<path d="M75.1598 83.3301C75.1323 80.007 73.9502 77.0954 73.153 74.0571C72.3007 70.7974 72.7681 67.6325 73.6753 64.1829C74.1701 66.0501 73.9777 67.6958 74.1426 69.3099C74.4725 72.2532 75.4897 75.0066 76.0945 77.8549C76.2319 78.5196 76.4793 79.2158 76.5068 79.8804C76.5618 80.64 77.0841 81.6528 75.8471 82.0009C75.5721 82.1275 75.4072 82.887 75.1598 83.3301Z" fill="#3065CC"/>
<path d="M130.636 102.382C130.774 102.319 130.994 102.382 131.076 102.129C132.643 102.667 134.155 103.395 135.612 104.345C133.935 103.68 132.286 103.047 130.636 102.382Z" fill="#E5746E"/>
<path d="M74.5825 87.0963C74.9674 87.6343 75.2423 88.0774 75.2973 88.6787C74.0877 88.8053 74.0877 88.8053 74.5825 87.0963Z" fill="#3E6DC9"/>
<path d="M11.4637 103.11C11.5186 103.174 11.6011 103.269 11.6561 103.332C10.7214 103.965 9.67677 104.091 8.65961 104.471C9.5668 103.902 10.474 103.364 11.4637 103.11Z" fill="#E49494"/>
</svg>
