<svg width="149" height="144" viewBox="0 0 149 144" fill="none" xmlns="http://www.w3.org/2000/svg">
<path d="M80.3005 88.9002C80.4379 88.0457 80.7403 87.571 81.4826 87.7292C82.5547 87.9508 82.9946 87.2228 83.5444 86.3367C84.5341 84.7543 84.5616 83.4883 83.5994 81.8426C82.9671 80.7349 82.3898 80.1336 81.2627 80.3552C80.3005 80.545 80.0256 80.0703 80.0805 78.9943C80.163 76.5574 80.1355 74.1521 80.163 71.7152C80.1905 69.7846 80.1355 67.8541 79.6682 65.9552C78.871 62.6637 78.816 59.309 78.8435 55.9226C78.871 54.2769 78.651 52.6628 78.3486 51.0488C77.9638 48.96 76.8366 47.7574 75.0497 47.3143C74.0876 47.0611 73.1254 46.8079 72.1907 46.3332C71.1461 45.7952 70.5962 45.0356 70.8437 43.5798C71.8883 44.1494 72.658 45.0989 73.3453 46.1116C73.9501 47.0294 74.6374 46.9345 75.4346 46.5864C76.2868 46.2066 76.3693 45.447 76.1769 44.5609C76.0394 43.8646 75.902 43.2 75.9569 42.5037C75.9569 42.3138 75.9569 41.9974 75.847 41.9341C74.225 40.9213 74.9673 39.1174 74.6924 37.6615C75.9569 36.3323 75.0772 34.6866 75.1872 33.1991C75.4346 29.6228 78.4311 27.3442 81.7025 28.3569C84.1217 29.0848 85.3038 30.8571 85.2763 33.7055C85.2763 34.4334 85.1938 35.193 85.2213 35.9209C85.2213 36.4272 84.7265 37.2185 85.7162 37.2817C85.7436 37.2817 85.7437 37.345 85.7711 37.3767C86.0735 37.9147 85.6062 41.4593 85.0839 41.7125C84.5341 41.9974 84.589 42.3455 84.5616 42.8519C84.5341 43.4532 84.4516 44.0861 84.3141 44.6558C84.0942 45.5736 84.3416 46.1749 85.0564 46.5547C85.8261 46.9661 86.5409 47.1244 87.1457 46.1749C87.8055 45.1305 88.6027 44.2444 89.5649 43.5798C90.5545 42.9152 91.5992 42.567 92.7538 42.9785C93.2486 43.1683 93.5235 43.0734 93.7435 42.5037C95.008 39.1806 97.0424 36.7754 100.149 35.731C100.534 35.6044 100.726 35.2879 100.891 34.9081C102.183 31.9965 104.08 29.6861 106.444 27.8505C108.176 26.5213 109.826 25.0655 111.53 23.7363C112.162 23.2299 112.162 22.8817 111.722 22.1855C111.145 21.2677 110.485 20.9512 109.496 20.9512C89.9497 20.9828 70.4038 20.9828 50.8579 20.9512C49.5933 20.9512 49.0985 21.8057 48.5486 22.7235C48.1913 23.3248 48.7411 23.5147 49.016 23.7363C50.8304 25.2554 52.6997 26.7428 54.5141 28.2303C55.6138 29.1481 56.6859 30.0976 57.5656 31.3002C57.923 31.7749 58.0604 32.1547 57.7306 32.7877C56.3285 35.5094 56.7409 38.1046 57.923 40.858C58.6377 42.5354 59.2425 44.3077 60.1772 45.8585C60.4246 46.2699 60.5621 46.713 60.9745 47.0294C59.5449 47.9472 59.5175 47.9472 58.6652 46.4914C57.7855 45.0356 57.1532 43.4215 56.6584 41.7442C56.411 40.8897 56.0811 40.0668 55.3663 39.5604C51.8475 37.1235 49.3184 33.6105 47.2016 29.6228C46.1844 27.7239 45.1398 25.8883 44.0676 24.0211C43.7652 23.4831 43.6003 22.945 43.4353 22.3437C43.3254 21.869 43.4903 21.1094 42.8855 21.0461C42.0333 20.9512 41.1811 20.9828 40.3289 21.1094C40.0265 21.1727 40.1639 21.7741 40.1639 22.1222C40.1639 25.9833 40.1365 29.8444 40.1639 33.7371C40.1639 34.6233 40.0265 35.0031 39.1743 34.9081C38.3496 34.8132 37.5248 34.8132 36.7001 34.9081C35.7654 35.0031 35.4905 34.6866 35.518 33.5789C35.573 25.9833 35.5455 18.356 35.5455 10.7604C35.5455 8.82988 35.573 6.89933 35.518 4.96878C35.4905 4.20922 35.7104 3.95603 36.3702 3.98768C37.3324 4.05098 38.2946 4.05098 39.2568 3.98768C39.999 3.92438 40.1365 4.27252 40.1365 5.03208C40.109 8.70329 40.109 12.3428 40.109 16.0141C40.109 17.9446 40.7413 18.5143 42.3357 17.8813C44.1501 17.1534 46.047 17.1534 47.8889 16.6787C48.2462 16.5837 48.5486 16.6787 48.6861 17.0901C48.9335 17.913 49.4833 17.9763 50.1431 17.9763C70.1839 17.9446 90.2521 17.9763 110.293 17.9763C110.953 17.9763 111.585 18.0079 111.832 17.0585C111.97 16.5521 112.382 16.6154 112.74 16.7103C114.581 17.185 116.506 17.1534 118.293 17.9446C118.375 17.9763 118.513 17.9446 118.623 17.9763C120.437 18.1345 120.437 18.1345 120.437 16.0457C120.437 12.3745 120.465 8.73493 120.437 5.06372C120.437 4.30416 120.574 3.95603 121.317 4.01933C122.251 4.08263 123.186 4.11427 124.093 4.01933C124.891 3.95603 125.11 4.20922 125.11 5.15867C125.055 9.96922 125.083 14.7798 125.083 19.5903C125.083 24.3059 125.055 29.0532 125.11 33.7688C125.11 34.6866 124.918 35.0031 124.093 34.9398C123.159 34.8448 122.224 34.8765 121.317 34.9398C120.602 35.0031 120.41 34.6866 120.41 33.8954C120.437 30.0343 120.382 26.1732 120.437 22.2804C120.465 21.236 120.19 20.8563 119.31 21.0145C119.062 21.0461 118.815 21.0461 118.568 21.0145C117.66 20.8563 117.166 21.2044 117.083 22.3437C117.056 22.9134 116.836 23.4514 116.561 23.9261C114.774 27.0593 112.987 30.1609 111.2 33.2941C109.743 35.8259 107.709 37.5982 105.565 39.2756C104.795 39.8769 104.217 40.6048 103.943 41.6176C102.925 45.4787 100.836 48.5169 98.1695 51.0488C97.7296 51.4602 97.4272 51.9033 97.3448 52.5679C96.6575 58.0431 94.5682 62.9169 92.5064 67.7908C91.7366 69.5947 91.7641 71.4303 91.6542 73.2976C91.4068 77.9815 91.1868 82.6655 90.1422 87.2228C90.1422 87.2545 90.1147 87.3178 90.1147 87.3494C89.5099 89.7547 89.5099 89.7231 87.3931 89.5015C85.0564 89.3116 82.7197 89.1217 80.3005 88.9002Z" fill="#3066CC"/>
<path d="M11.4636 103.11C21.1403 98.9327 31.037 95.6413 41.1536 93.2993C45.7996 92.2233 50.5005 91.4004 55.2839 90.7358C54.9265 89.185 54.5416 87.7292 54.2117 86.2417C53.1946 81.5894 53.6894 77.2852 56.411 73.4558C56.8783 72.7912 57.2357 72.0316 57.7031 71.3354C60.2597 67.3793 60.5346 61.7143 58.3079 57.1569C58.033 58.0747 57.7855 58.8976 57.5381 59.6888C56.9333 61.6826 56.1636 63.5815 55.0914 65.2905C54.2942 66.5881 53.3045 67.6008 52.04 68.3288C51.3527 68.7085 50.8304 68.6136 50.363 67.8857C49.0435 65.7652 47.8064 63.6448 46.8167 61.3028C46.3494 60.1951 45.8545 59.0874 45.3872 57.9798C44.9748 56.9987 44.48 56.1125 43.3254 56.429C42.968 56.5239 42.7206 56.334 42.5556 55.9543C42.4732 55.7644 42.3907 55.6061 42.2807 55.4162C41.2911 53.5173 41.3735 52.4413 42.6656 50.8272C43.0505 50.3209 43.5453 50.5424 43.9577 50.574C44.59 50.6057 45.0573 50.4791 45.3047 49.7195C45.4147 49.3714 45.6346 49.1815 46.0195 49.1182C48.1363 48.865 48.3287 48.96 49.4008 51.0804C50.0881 52.4729 48.906 54.7833 47.504 54.8149C46.3769 54.8466 46.4318 54.8149 46.9267 56.0176C47.9163 58.3912 49.3734 60.2268 51.3802 61.556C51.7101 61.2079 51.7101 60.6699 51.9025 60.2584C52.2599 59.3723 52.4248 58.2962 52.9472 57.5683C54.1568 55.9543 54.7066 54.0554 55.2564 52.1248C55.7512 50.3525 56.7134 49.2132 58.5003 49.0549C59.7374 48.9283 60.947 48.4219 62.0191 47.694C62.6239 47.2826 63.2287 46.8395 63.4211 45.9534C61.3318 46.3965 61.2494 46.4281 60.1223 44.1494C59.0501 41.9973 58.033 39.8136 57.6756 37.2817C57.3457 34.8448 58.1979 32.9776 59.7924 31.585C61.4418 30.1609 63.3662 29.9077 65.263 30.8571C65.8403 31.1419 66.1977 31.2052 66.775 30.8255C68.7544 29.4962 70.4588 30.6989 70.4588 33.3257C70.4588 34.2751 70.3213 35.2246 70.1014 36.1424C69.3866 39.2439 69.799 42.3455 70.0739 45.447C70.1289 45.9534 70.3213 46.2382 70.7062 46.4914C71.7783 47.251 72.878 47.9156 74.1425 48.1055C76.3418 48.4536 77.4139 49.8778 77.7438 52.378C78.0462 54.9099 77.9638 57.4734 78.0737 60.0052C78.1287 61.5244 78.1837 63.0435 78.5411 64.531C79.4758 68.2971 79.4483 72.1582 79.3108 76.051C79.2558 77.5384 79.2833 78.9943 79.3383 80.4817C79.3658 81.2729 79.6132 81.4945 80.218 81.3679C80.3005 81.3679 80.3555 81.3679 80.4379 81.3679C82.1973 80.8299 82.9121 82.1274 83.4894 83.6782C83.5444 83.8681 83.7093 84.0263 83.6269 84.2479C83.3245 84.8809 82.9396 85.5138 82.6922 86.1784C82.3348 87.1595 81.62 86.7797 81.0427 86.843C80.6579 86.8747 80.1905 86.7481 80.0805 87.3178C79.6957 88.9951 78.596 88.8369 77.4689 88.8369C76.7267 88.8369 76.3418 88.5204 75.847 87.8558C74.4999 86.0518 75.4071 84.6277 76.1769 83.1402C76.2318 83.0452 76.2868 82.8554 76.3693 82.8554C78.1837 82.6338 77.4689 81.1147 77.359 80.102C77.0841 77.665 76.3143 75.323 75.7095 72.9494C75.2422 71.1771 74.9123 69.3732 74.8848 67.5059C74.8298 64.7525 74.0326 62.094 74.0326 59.309C73.1529 63.5182 71.6409 67.5692 71.9708 72.0316C72.0807 73.614 72.5756 75.0699 73.0429 76.5257C74.4175 80.6083 74.5824 84.691 73.3178 88.8052C72.9604 89.9446 73.6477 89.6914 74.1151 89.6914C85.3038 89.7863 96.3276 91.4637 107.241 94.2171C115.351 96.2743 123.269 98.9327 131.076 102.192C131.103 102.667 130.829 102.477 130.636 102.446C121.619 99.2809 112.465 96.7173 103.173 94.9134C87.558 91.8435 71.8883 90.989 56.1086 92.7296C40.9337 94.407 26.1437 98.0782 11.656 103.427C11.4361 103.427 11.4086 103.332 11.4636 103.11Z" fill="#ED2707"/>
<path d="M132.176 19.4321C132.176 14.6532 132.203 9.90593 132.148 5.12703C132.148 4.30417 132.313 3.92439 133.083 4.01934C133.935 4.08264 134.787 4.08264 135.639 4.01934C136.464 3.95604 136.739 4.20923 136.739 5.22198C136.684 8.7033 136.767 12.2163 136.684 15.6976C136.657 16.9002 136.849 17.3433 138.004 17.28C140.313 17.1534 142.65 17.28 144.959 17.2167C145.591 17.2167 145.811 17.4066 145.838 18.1662C145.893 21.5525 145.921 21.5209 143.007 21.5525C141.193 21.5525 139.378 21.5842 137.536 21.5525C136.876 21.5209 136.684 21.8057 136.712 22.5336C136.739 26.2998 136.712 30.0976 136.739 33.8637C136.739 34.7499 136.519 35.0031 135.777 34.9398C134.897 34.8765 133.99 34.8765 133.11 34.9398C132.341 35.0031 132.148 34.6866 132.148 33.8321C132.203 29.0532 132.176 24.2426 132.176 19.4321Z" fill="#3066CC"/>
<path d="M28.4255 19.622C28.4255 24.2743 28.398 28.9266 28.453 33.5789C28.4805 34.7499 28.1506 35.0664 27.1884 34.9398C26.4186 34.8448 25.6214 34.8448 24.8242 34.9398C23.972 35.0347 23.8345 34.6233 23.8345 33.7371C23.917 30.1609 23.8345 26.5213 23.917 22.9134C23.9445 21.7108 23.5871 21.4892 22.6524 21.5209C20.3707 21.5842 18.0889 21.5209 15.7797 21.5525C15.065 21.5525 14.79 21.3943 14.79 20.4765C14.79 17.2167 14.7626 17.2167 17.6216 17.2167C19.381 17.2167 21.1129 17.1851 22.8723 17.2483C23.6696 17.28 23.917 17.0585 23.8895 16.109C23.8345 12.4378 23.8895 8.79824 23.862 5.12703C23.862 4.27252 24.0269 3.95604 24.7967 4.01934C25.6489 4.08263 26.5286 4.11428 27.3533 4.01934C28.3155 3.89274 28.453 4.36747 28.4255 5.34857C28.398 10.0958 28.4255 14.8747 28.4255 19.622Z" fill="#3066CC"/>
<path d="M29.6625 19.4321C29.6625 14.8114 29.6625 10.2224 29.6625 5.60174C29.6625 3.98768 29.6625 3.98768 31.092 3.98768C31.7243 3.98768 32.3841 4.05097 33.0164 3.95603C34.0335 3.82944 34.3359 4.17757 34.3359 5.41185C34.281 11.1719 34.3084 16.9319 34.3084 22.6919C34.3084 26.4264 34.281 30.1609 34.3084 33.927C34.3084 34.6866 34.171 35.0664 33.4287 35.0031C32.494 34.9081 31.5594 34.9398 30.6522 35.0031C29.8549 35.0664 29.635 34.8132 29.635 33.8637C29.69 29.0532 29.6625 24.2426 29.6625 19.4321Z" fill="#3066CC"/>
<path d="M130.939 19.4954C130.939 24.0527 130.939 28.6417 130.939 33.1991C130.939 35.0031 130.939 35.0031 129.344 35.0031C128.767 35.0031 128.189 34.9081 127.64 35.0347C126.485 35.2562 126.32 34.6549 126.32 33.4839C126.375 25.382 126.348 17.28 126.348 9.178C126.348 7.81712 126.375 6.45624 126.348 5.09536C126.32 4.3358 126.458 3.95602 127.2 4.01932C128.162 4.08261 129.124 4.08261 130.086 4.01932C130.829 3.95602 130.966 4.3358 130.966 5.09536C130.939 9.87426 130.939 14.6848 130.939 19.4954Z" fill="#2F65CC"/>
<path d="M77.7164 132.512C73.8402 125.707 69.9365 119.124 65.6754 112.51C65.648 113.08 65.6205 113.333 65.6205 113.618C65.648 119.124 65.6755 124.631 65.7304 130.17C65.7579 131.847 65.7854 131.847 64.3834 131.847C64.3834 129.79 64.3834 127.764 64.3834 125.707C64.4109 119.947 64.4109 114.187 64.4384 108.427C64.4384 107.826 64.1635 106.908 64.6033 106.75C65.1531 106.56 65.4005 107.509 65.7029 108.016C69.1943 113.681 72.6856 119.346 76.1769 125.011C76.3144 125.232 76.4518 125.422 76.8092 125.929C76.8092 124.536 76.8092 123.492 76.8092 122.416C76.8092 117.51 76.7817 112.636 76.7817 107.731C76.7817 107.225 76.7542 106.781 77.359 107.003C77.7439 107.13 78.3487 106.655 78.2937 107.763C77.9363 115.896 77.7714 124.03 77.8539 132.195C77.8814 132.163 77.8539 132.195 77.7164 132.512Z" fill="#232323"/>
<path d="M90.9394 109.978C89.2899 109.535 87.6405 109.345 86.0185 109.092C85.1113 108.965 84.699 109.06 84.7265 110.326C84.7814 112.573 84.699 114.852 84.6165 117.099C84.589 117.922 84.8089 118.175 85.5237 118.143C86.9257 118.112 88.3003 118.207 89.7023 118.143C90.8844 118.112 90.2521 119.093 90.3621 119.599C90.527 120.485 89.9222 120.074 89.6198 120.042C88.2453 119.947 86.8432 119.789 85.4687 119.631C84.9189 119.567 84.6165 119.694 84.644 120.454C84.6715 123.429 84.6715 126.372 84.6165 129.347C84.6165 130.106 84.8639 130.233 85.4412 130.201C87.0907 130.106 88.7126 130.075 90.3621 129.916C90.9394 129.853 91.1593 130.011 91.0768 130.644C91.0218 131.182 91.3517 131.942 90.3896 131.847C87.9704 131.625 85.5512 131.625 83.1045 131.784C82.5822 131.815 82.5547 131.562 82.5547 131.056C82.7746 123.334 82.8571 115.611 82.6647 107.889C82.6372 107.161 82.8021 107.003 83.4344 107.098C85.4687 107.351 87.4755 107.573 89.5099 107.763C91.0219 107.921 91.0218 107.921 90.9394 109.978Z" fill="#232323"/>
<path d="M93.8535 127.321C94.4033 128.207 94.7882 128.967 95.2555 129.6C96.795 131.657 99.2692 131.404 100.506 129.125C101.771 126.783 101.249 123.935 99.1867 122.289C98.2795 121.561 97.2899 120.96 96.3827 120.264C93.9085 118.302 93.0563 114.377 94.4033 111.276C95.338 109.124 97.5098 108.269 99.874 109.124C102.238 109.946 102.623 110.833 101.716 113.649C101.441 113.048 101.221 112.51 100.974 112.004C100.176 110.516 98.8293 109.788 97.6472 110.168C96.4101 110.548 95.6954 111.877 95.6954 113.744C95.6679 115.548 96.3277 116.941 97.5922 117.922C98.6919 118.776 99.8465 119.504 100.891 120.422C103.31 122.542 103.778 126.34 102.101 129.378C100.534 132.227 97.2624 133.24 94.6507 131.72C93.7985 131.214 93.0288 130.644 93.5511 129.252C93.7435 128.682 93.7435 128.081 93.8535 127.321Z" fill="#222222"/>
<path d="M113.454 116.308C112.987 115.105 112.52 114.092 111.64 113.428C110.678 112.731 109.661 112.352 108.616 113.08C107.599 113.776 107.406 114.947 107.516 116.213C107.626 117.574 108.204 118.65 109.166 119.378C110.265 120.232 111.42 120.96 112.52 121.815C114.032 122.985 114.994 124.536 114.856 126.752C114.664 130.201 111.805 132.765 108.561 132.353C108.341 132.322 108.149 132.29 107.929 132.227C105.372 131.657 105.015 130.993 105.784 127.923C106.142 128.492 106.444 129.03 106.802 129.505C107.764 130.866 109.028 131.436 110.513 131.024C111.805 130.676 112.575 129.6 112.877 128.144C113.234 126.435 112.712 125.011 111.53 124.03C110.485 123.144 109.358 122.447 108.259 121.656C106.142 120.137 105.372 117.89 105.757 115.105C106.059 112.763 107.544 111.402 109.606 111.592C110.623 111.687 111.585 111.972 112.465 112.542C114.252 113.618 114.334 113.871 113.454 116.308Z" fill="#222222"/>
<path d="M56.3285 121.688C56.356 124.188 56.301 127.575 56.521 130.929C56.5759 131.657 56.4935 132.037 55.7512 131.752C55.5588 131.689 55.3114 131.689 55.1189 131.752C54.2667 132.069 54.2942 131.499 54.3217 130.803C54.3492 124.568 54.3767 118.302 54.4042 112.067C54.4042 111.75 54.3767 111.402 54.4042 111.086C54.5416 109.946 54.1018 109.788 53.2496 110.041C52.1774 110.358 51.0778 110.579 50.0056 110.801C49.7307 110.864 49.1534 111.434 49.1809 110.484C49.2084 109.915 48.7686 109.06 49.8407 108.934C52.4248 108.649 55.009 108.269 57.5931 107.921C58.6103 107.794 59.6549 107.604 60.6721 107.415C61.1119 107.351 61.5518 107.32 61.3318 108.016C61.1944 108.522 61.9091 109.535 60.6996 109.472C59.5999 109.408 58.5003 109.472 57.3732 109.472C56.6034 109.472 56.2735 109.788 56.301 110.769C56.356 114.187 56.3285 117.51 56.3285 121.688Z" fill="#232323"/>
<path d="M40.6313 111.022C40.9337 112.383 40.5763 112.921 39.3393 113.016C37.9922 113.111 36.6727 113.618 35.3531 113.871C34.8033 113.997 34.5834 114.251 34.5834 114.915C34.6108 116.687 34.5834 118.46 34.5009 120.232C34.4459 121.15 34.7758 121.245 35.4356 121.087C36.7276 120.802 38.0197 120.517 39.3393 120.295C39.6142 120.264 40.1915 119.631 40.164 120.58C40.164 121.087 40.5763 121.909 39.4767 121.909C38.1022 121.909 36.7001 122.226 35.3256 122.321C34.6658 122.353 34.5009 122.669 34.5284 123.397C34.5833 125.96 34.5009 128.492 34.6108 131.056C34.6658 132.512 33.7861 131.879 33.2638 132.005C32.549 132.195 32.4666 131.752 32.4941 131.056C32.7415 125.454 32.7415 119.884 32.5215 114.282C32.4941 113.839 32.4116 113.396 32.9889 113.238C35.518 112.51 38.0747 111.75 40.6313 111.022Z" fill="#222222"/>
<path d="M46.4044 109.82C46.4044 112.415 46.4319 114.978 46.4044 117.574C46.3219 122.004 46.4594 126.435 46.6518 130.866C46.6793 131.499 46.7893 132.227 45.9096 131.879C45.3323 131.689 44.2876 132.702 44.3701 130.866C44.6725 124.473 44.645 118.048 44.4251 111.655C44.3976 110.548 44.5625 109.978 45.6072 110.01C45.8821 110.01 46.1845 109.851 46.4044 109.82Z" fill="#232323"/>
<path d="M75.1598 83.3301C75.1323 80.007 73.9502 77.0954 73.1529 74.0571C72.3007 70.7974 72.7681 67.6325 73.6753 64.1829C74.1701 66.0501 73.9777 67.6958 74.1426 69.3099C74.4725 72.2532 75.4896 75.0066 76.0944 77.8549C76.2319 78.5196 76.4793 79.2158 76.5068 79.8804C76.5618 80.64 77.0841 81.6528 75.847 82.0009C75.5721 82.1275 75.4072 82.887 75.1598 83.3301Z" fill="#3065CC"/>
<path d="M130.636 102.382C130.774 102.319 130.993 102.382 131.076 102.129C132.643 102.667 134.155 103.395 135.612 104.345C133.935 103.68 132.286 103.047 130.636 102.382Z" fill="#E5746E"/>
<path d="M74.5824 87.0963C74.9672 87.6343 75.2422 88.0774 75.2971 88.6787C74.0875 88.8053 74.0875 88.8053 74.5824 87.0963Z" fill="#3E6DC9"/>
<path d="M11.4636 103.11C11.5186 103.174 11.6011 103.269 11.656 103.332C10.7214 103.965 9.6767 104.091 8.65955 104.471C9.56674 103.902 10.4739 103.363 11.4636 103.11Z" fill="#E49494"/>
</svg>
